<svg xmlns="http://www.w3.org/2000/svg" version="1.1" xmlns:xlink="http://www.w3.org/1999/xlink" xmlns:svgjs="http://svgjs.dev/svgjs" width="100%" height="100%" viewBox="0 0 1000 600"><rect width="1000" height="600" x="0" y="0" fill="#000000"/><g><circle r="166.66666666666666" cx="261.7855784098307" cy="284.0078269679019" fill="#be95c4" transform="matrix(1.3141443447678223,0,0,1.3141443447678225,0,-73.22727279898203)"/><path d="M206.1409671144571 359.0078355774709L206.1409671144571 209.00783962668513L224.78316033080864 209.00783962668513L224.78316033080864 275.1843084285024L299.05339273545474 275.1843084285024L299.05339273545474 209.00783962668513L317.43021665335283 209.00783962668513L317.43021665335283 359.0078355774709L299.05339273545474 359.0078355774709L299.05339273545474 291.1728086603199L224.78316033080864 291.1728086603199L224.78316033080864 359.0078355774709L206.1409671144571 359.0078355774709Z " fill="#000000" transform="matrix(1.3141443447678223,0,0,1.3141443447678225,0,-73.22727279898203)"/><path d="M511.7855937318887 359.0078355774709L511.7855937318887 209.00783962668513L538.5547217133758 209.00783962668513L590.1358791002558 312.66772183504554L588.2119516864686 312.66772183504554L639.7931090733489 209.00783962668513L665.832471484089 209.00783962668513L665.832471484089 359.0078355774709L646.9580801315907 359.0078355774709L646.9580801315907 228.3797984137835L650.3083675245649 228.3797984137835L595.3769227447106 340.13344422497266L582.970908042014 340.13344422497266L528.2716613983064 229.07639282222368L530.4277869482403 229.07639282222368L530.4277869482403 359.0078355774709L511.7855937318887 359.0078355774709Z " fill="#be95c4" transform="matrix(1.3141443447678223,0,0,1.3141443447678225,0,-73.22727279898203)"/></g></svg>