<svg xmlns="http://www.w3.org/2000/svg" version="1.1" xmlns:xlink="http://www.w3.org/1999/xlink" xmlns:svgjs="http://svgjs.dev/svgjs" width="1000" height="1125" viewBox="0 0 1000 1125"><g transform="matrix(1,0,0,1,0,0)"><svg viewBox="0 0 320 360" data-background-color="#ffffff" preserveAspectRatio="xMidYMid meet" height="1125" width="1000" xmlns="http://www.w3.org/2000/svg" xmlns:xlink="http://www.w3.org/1999/xlink"><g id="tight-bounds" transform="matrix(1,0,0,1,0,0)"><svg viewBox="0 0 320 360" height="360" width="320"><g><svg></svg></g><g><svg viewBox="0 0 320 360" height="360" width="320"><g><path xmlns="http://www.w3.org/2000/svg" d="M320 187.111c0-45.764-20.238-86.866-52.203-114.908-28.043-31.964-69.145-52.203-114.908-52.203-84.302 0-152.889 68.587-152.889 152.889 0 45.753 20.231 86.848 52.185 114.891 28.043 31.975 69.152 52.22 114.926 52.22 0.299 0 0.59-0.021 0.889-0.021 0.299 0 0.59 0.021 0.889 0.021 83.456 0 151.111-67.655 151.111-151.111 0-0.299-0.021-0.59-0.021-0.889 0-0.299 0.021-0.59 0.021-0.889zM59.833 263.097c-15.093-21.255-24.071-47.143-24.256-75.097 0.48-72.928 59.492-131.943 132.423-132.423 27.954 0.185 53.845 9.163 75.097 24.256 24.366 23.627 39.57 56.64 39.57 93.056 0 71.559-58.219 129.778-129.778 129.778-36.416 0-69.429-15.204-93.056-39.57zM3.556 172.889c0-82.343 66.99-149.333 149.333-149.333 35.051 0 67.292 12.167 92.8 32.462-22.98-13.824-49.863-21.796-78.578-21.796-84.302 0-152.889 68.587-152.889 152.889 0 28.708 7.968 55.584 21.785 78.56-20.288-25.5-32.452-57.739-32.451-92.782zM167.111 318.667c-35.84 0-68.363-14.418-92.107-37.743 21.952 15.89 48.864 25.298 77.885 25.298 73.522 0 133.333-59.812 133.333-133.333 0-29.02-9.408-55.932-25.298-77.885 23.324 23.744 37.742 56.267 37.743 92.107 0 72.54-59.015 131.556-131.556 131.556z" fill="#d676a9" fill-rule="nonzero" stroke="none" stroke-width="1" stroke-linecap="butt" stroke-linejoin="miter" stroke-miterlimit="10" stroke-dasharray="" stroke-dashoffset="0" font-family="none" font-weight="none" font-size="none" text-anchor="none" style="mix-blend-mode: normal" data-fill-palette-color="tertiary"></path></g><g transform="matrix(1,0,0,1,64,135.48704988035047)"><svg viewBox="0 0 192 89.02590023929905" height="89.02590023929905" width="192"><g><svg viewBox="0 0 192 89.02590023929905" height="89.02590023929905" width="192"><g><svg viewBox="0 0 192 89.02590023929905" height="89.02590023929905" width="192"><g><svg viewBox="0 0 192 89.02590023929905" height="89.02590023929905" width="192"><g id="textblocktransform"><svg viewBox="0 0 192 89.02590023929905" height="89.02590023929905" width="192" id="textblock"><g><svg viewBox="0 0 192 50.15095044366807" height="50.15095044366807" width="192"><g transform="matrix(1,0,0,1,0,0)"><svg width="192" viewBox="3.546988010406494 -36.587501525878906 142.74301147460938 37.28750228881836" height="50.15095044366807" data-palette-color="#c53683"><path d="M25.15-6.8Q25.15-3 26-0.65L26-0.65Q24.55 0.7 22.65 0.7L22.65 0.7Q21.15 0.7 20.2-0.15 19.25-1 19.25-2.45L19.25-2.45 19.25-15.35Q19.25-19.5 18.35-21.53 17.45-23.55 15.15-23.55L15.15-23.55Q12.65-23.55 11-20.58 9.35-17.6 9.35-11.85L9.35-11.85Q9.35-6.15 9.5-4.25 9.65-2.35 10.35-0.6L10.35-0.6Q8.75 0.7 7 0.7L7 0.7Q5.5 0.7 4.53-0.23 3.55-1.15 3.55-2.7L3.55-2.7 3.55-33.5Q3.5-34.9 4.28-35.68 5.05-36.45 6.35-36.55L6.35-36.55Q7.55-36.7 8.63-36.25 9.7-35.8 10.35-35.3L10.35-35.3Q9.75-33.35 9.55-30.88 9.35-28.4 9.3-24.5L9.3-24.5 9.3-21.1Q10.35-23.65 12.33-25.03 14.3-26.4 17.1-26.4L17.1-26.4Q21.2-26.4 23.18-23.85 25.15-21.3 25.15-16.25L25.15-16.25 25.15-6.8ZM42.35 0.7Q36.6 0.7 33.42-2.88 30.25-6.45 30.25-12.85L30.25-12.85Q30.25-19.25 33.42-22.83 36.6-26.4 42.35-26.4L42.35-26.4Q48.05-26.4 51.22-22.83 54.4-19.25 54.4-12.85L54.4-12.85Q54.4-6.45 51.22-2.88 48.05 0.7 42.35 0.7L42.35 0.7ZM42.35-1.45Q48-1.45 48-12.85L48-12.85Q48-24.25 42.35-24.25L42.35-24.25Q36.6-24.25 36.6-12.85L36.6-12.85Q36.6-1.45 42.35-1.45L42.35-1.45ZM67.34 0.7Q62.65 0.7 60.25-0.93 57.85-2.55 57.85-5.2L57.85-5.2Q57.85-6.55 58.67-7.55 59.5-8.55 61.25-8.55L61.25-8.55Q61.55-8.55 62.35-8.45L62.35-8.45Q62.2-7.85 62.2-7.2L62.2-7.2Q62.2-6.65 62.35-5.95L62.35-5.95Q62.6-4.1 64.07-2.85 65.55-1.6 68.09-1.6L68.09-1.6Q70.3-1.6 71.67-2.43 73.05-3.25 73.05-4.9L73.05-4.9Q73.05-6.55 71.82-7.55 70.59-8.55 67.95-9.8L67.95-9.8Q67.3-10.05 66.84-10.3L66.84-10.3Q64.2-11.55 62.6-12.55 61-13.55 59.85-15.23 58.7-16.9 58.7-19.35L58.7-19.35Q58.7-22.9 61.45-24.68 64.2-26.45 68.4-26.45L68.4-26.45Q72.55-26.45 75-25.18 77.45-23.9 77.45-21.55L77.45-21.55Q77.45-20.35 76.77-19.53 76.09-18.7 74.65-18.65L74.65-18.65 74.15-18.65Q73.7-18.65 73-18.75L73-18.75Q73.09-20.55 72.65-21.45L72.65-21.45Q72.3-22.75 71.15-23.5 70-24.25 68.2-24.25L68.2-24.25Q66.45-24.25 65.25-23.53 64.05-22.8 64.05-21.3L64.05-21.3Q64.05-19.95 64.87-18.98 65.7-18 66.87-17.3 68.05-16.6 70.25-15.55L70.25-15.55Q73.05-14.2 74.65-13.28 76.25-12.35 77.42-10.83 78.59-9.3 78.59-7.15L78.59-7.15Q78.59-3.85 75.87-1.58 73.15 0.7 67.34 0.7L67.34 0.7ZM103.09-7.05Q103.89-6.7 103.89-5.75L103.89-5.75Q103.89-5.15 103.54-4.25L103.54-4.25Q102.59-1.9 100.12-0.6 97.64 0.7 94.19 0.7L94.19 0.7Q88.44 0.7 85.12-2.85 81.79-6.4 81.79-12.85L81.79-12.85Q81.79-19.2 85.04-22.8 88.29-26.4 94.34-26.4L94.34-26.4Q98.69-26.4 101.47-24.45 104.24-22.5 104.24-18.9L104.24-18.9Q104.24-15.25 101.27-13.28 98.29-11.3 93.29-11.3L93.29-11.3Q90.44-11.3 88.24-11.55L88.24-11.55Q88.59-7 90.54-5.03 92.49-3.05 95.84-3.05L95.84-3.05Q98.49-3.05 100.39-4.15 102.29-5.25 103.09-7.05L103.09-7.05ZM94.09-24.25Q91.29-24.25 89.72-21.45 88.14-18.65 88.14-13.65L88.14-13.65Q89.54-13.55 90.34-13.55L90.34-13.55Q93.64-13.55 95.74-14.85 97.84-16.15 97.84-19.85L97.84-19.85Q97.84-24.25 94.09-24.25L94.09-24.25ZM112.69-29.2Q111.24-29.2 110.22-30.2 109.19-31.2 109.19-32.65L109.19-32.65Q109.19-34.15 110.22-35.15 111.24-36.15 112.69-36.15L112.69-36.15Q114.14-36.15 115.17-35.15 116.19-34.15 116.19-32.65L116.19-32.65Q116.19-31.2 115.17-30.2 114.14-29.2 112.69-29.2L112.69-29.2ZM115.89-6.8Q115.89-2.85 116.74-0.65L116.74-0.65Q116.24-0.15 115.37 0.28 114.49 0.7 113.34 0.7L113.34 0.7Q111.94 0.7 110.99-0.15 110.04-1 110.04-2.45L110.04-2.45 109.99-18.95Q109.99-22.65 109.14-25.1L109.14-25.1Q110.59-26.4 112.44-26.4L112.44-26.4Q113.94-26.4 114.87-25.58 115.79-24.75 115.79-23.3L115.79-23.3 115.89-6.8ZM145.34-6.8Q145.49-2.65 146.29-0.65L146.29-0.65Q144.74 0.7 142.84 0.7L142.84 0.7Q141.34 0.7 140.39-0.15 139.44-1 139.44-2.45L139.44-2.45 139.44-15.35Q139.39-19.45 138.51-21.4 137.64-23.35 135.34-23.35L135.34-23.35Q132.84-23.35 131.19-20.43 129.54-17.5 129.54-11.85L129.54-11.85Q129.54-6.15 129.69-4.25 129.84-2.35 130.54-0.6L130.54-0.6Q129.99-0.1 129.11 0.3 128.24 0.7 127.19 0.7L127.19 0.7Q125.64 0.7 124.66-0.23 123.69-1.15 123.69-2.7L123.69-2.7 123.69-19.3Q123.64-20.7 123.34-21.3 123.04-21.9 122.34-21.9L122.34-21.9Q121.39-21.9 121.04-21.25L121.04-21.25Q120.44-22.25 120.44-23.25L120.44-23.25Q120.44-24.65 121.41-25.5 122.39-26.35 124.14-26.35L124.14-26.35Q126.39-26.35 127.61-24.88 128.84-23.4 128.89-20.4L128.89-20.4Q129.94-23.3 132.04-24.85 134.14-26.4 137.29-26.4L137.29-26.4Q141.39-26.4 143.36-23.85 145.34-21.3 145.34-16.25L145.34-16.25 145.34-6.8Z" opacity="1" transform="matrix(1,0,0,1,0,0)" fill="#c53683" class="wordmark-text-0" data-fill-palette-color="primary" id="text-0"></path></svg></g></svg></g><g transform="matrix(1,0,0,1,0,61.990386220607455)"><svg viewBox="0 0 192 27.03551401869159" height="27.03551401869159" width="192"><g transform="matrix(1,0,0,1,0,0)"><svg width="192" viewBox="1.25 -35.349998474121094 320.9700012207031 45.19999694824219" height="27.03551401869159" data-palette-color="#e4bdd2"><path d="M13.9 0L9.05 0 1.25-25.35 5.45-25.35 7.9-16.95Q9.2-12.55 10.08-9.28 10.95-6 11.2-4.9L11.2-4.9 11.45-3.85Q12.2-7.05 15.1-17L15.1-17 17.5-25.35 21.7-25.35 24.15-17 27.9-3.8Q28.6-6.75 31.75-17L31.75-17 34.3-25.35 38.35-25.35 30.35 0 25.5 0 23.1-8.3 19.6-20.95Q18.85-17.75 16.2-8.3L16.2-8.3 13.9 0ZM45.8-14.3L59.4-14.3 59.4-15.3Q59.4-18.45 57.7-20.33 56-22.2 53-22.2L53-22.2Q50.15-22.2 48.15-20.15 46.15-18.1 45.8-14.3L45.8-14.3ZM61.75-5L61.75-5 61.75-1.3Q58.8 0.25 54.55 0.25L54.55 0.25Q48.8 0.25 45.27-3.28 41.75-6.8 41.75-12.6L41.75-12.6Q41.75-18.65 44.9-22.15 48.05-25.65 53-25.65L53-25.65Q57.75-25.65 60.55-22.6 63.35-19.55 63.35-13.95L63.35-13.95Q63.35-12.35 63.1-11L63.1-11 45.8-11Q46.25-7.25 48.65-5.25 51.05-3.25 54.95-3.25L54.95-3.25Q59.2-3.25 61.75-5ZM80.9-3.2L80.9-3.2Q83.95-3.2 85.95-5.75 87.95-8.3 87.95-12.4L87.95-12.4Q87.95-17.1 85.87-19.63 83.8-22.15 80.65-22.15L80.65-22.15Q77.95-22.15 75.7-19.9 73.45-17.65 73.45-12.85L73.45-12.85Q73.45-7.8 75.62-5.5 77.8-3.2 80.9-3.2ZM69.5-35.35L73.45-35.35 73.45-21.55Q76.2-25.75 81.15-25.75L81.15-25.75Q85.95-25.75 89-22.08 92.05-18.4 92.05-12.45L92.05-12.45Q92.05-7.1 89.17-3.35 86.3 0.4 81.25 0.4L81.25 0.4Q76.15 0.4 73.45-3.75L73.45-3.75 73.45 0 69.5 0 69.5-35.35ZM119.69-3.2L119.69-3.2Q122.79-3.2 124.97-5.5 127.14-7.8 127.14-12.85L127.14-12.85Q127.14-17.65 124.89-19.9 122.64-22.15 119.94-22.15L119.94-22.15Q116.79-22.15 114.72-19.63 112.64-17.1 112.64-12.4L112.64-12.4Q112.64-8.3 114.64-5.75 116.64-3.2 119.69-3.2ZM127.14-21.5L127.14-35.35 131.09-35.35 131.09 0 127.14 0 127.14-3.75Q124.44 0.4 119.34 0.4L119.34 0.4Q114.29 0.4 111.42-3.35 108.54-7.1 108.54-12.45L108.54-12.45Q108.54-18.4 111.59-22.08 114.64-25.75 119.44-25.75L119.44-25.75Q124.39-25.75 127.14-21.5L127.14-21.5ZM140.94-14.3L154.54-14.3 154.54-15.3Q154.54-18.45 152.84-20.33 151.14-22.2 148.14-22.2L148.14-22.2Q145.29-22.2 143.29-20.15 141.29-18.1 140.94-14.3L140.94-14.3ZM156.89-5L156.89-5 156.89-1.3Q153.94 0.25 149.69 0.25L149.69 0.25Q143.94 0.25 140.41-3.28 136.89-6.8 136.89-12.6L136.89-12.6Q136.89-18.65 140.04-22.15 143.19-25.65 148.14-25.65L148.14-25.65Q152.89-25.65 155.69-22.6 158.49-19.55 158.49-13.95L158.49-13.95Q158.49-12.35 158.24-11L158.24-11 140.94-11Q141.39-7.25 143.79-5.25 146.19-3.25 150.09-3.25L150.09-3.25Q154.34-3.25 156.89-5ZM175.78 0L170.94 0 162.09-25.35 166.19-25.35 169.69-14.65 173.39-3.1Q173.84-5.25 177.14-14.65L177.14-14.65 180.74-25.35 184.84-25.35 175.78 0ZM192.28-14.3L205.88-14.3 205.88-15.3Q205.88-18.45 204.18-20.33 202.48-22.2 199.48-22.2L199.48-22.2Q196.63-22.2 194.63-20.15 192.63-18.1 192.28-14.3L192.28-14.3ZM208.23-5L208.23-5 208.23-1.3Q205.28 0.25 201.03 0.25L201.03 0.25Q195.28 0.25 191.76-3.28 188.23-6.8 188.23-12.6L188.23-12.6Q188.23-18.65 191.38-22.15 194.53-25.65 199.48-25.65L199.48-25.65Q204.23-25.65 207.03-22.6 209.83-19.55 209.83-13.95L209.83-13.95Q209.83-12.35 209.58-11L209.58-11 192.28-11Q192.73-7.25 195.13-5.25 197.53-3.25 201.43-3.25L201.43-3.25Q205.68-3.25 208.23-5ZM219.98 0L216.03 0 216.03-35.35 219.98-35.35 219.98 0ZM237.78 0.45L237.78 0.45Q232.33 0.45 229.15-3.23 225.98-6.9 225.98-12.5L225.98-12.5Q225.98-18.15 229.25-21.93 232.53-25.7 237.78-25.7L237.78-25.7Q243.53-25.7 246.65-22 249.78-18.3 249.78-12.6L249.78-12.6Q249.78-6.95 246.58-3.25 243.38 0.45 237.78 0.45ZM237.78-22.2L237.78-22.2Q234.18-22.2 232.13-19.4 230.08-16.6 230.08-12.55L230.08-12.55Q230.08-8.6 232.18-5.83 234.28-3.05 237.78-3.05L237.78-3.05Q241.58-3.05 243.63-5.78 245.68-8.5 245.68-12.55L245.68-12.55Q245.68-16.75 243.73-19.48 241.78-22.2 237.78-22.2ZM266.73-3.2L266.73-3.2Q269.93-3.2 271.98-5.73 274.03-8.25 274.03-12.9L274.03-12.9Q274.03-17.05 272.03-19.6 270.03-22.15 266.98-22.15 263.93-22.15 261.7-19.93 259.48-17.7 259.48-12.65L259.48-12.65Q259.48-7.8 261.73-5.5 263.98-3.2 266.73-3.2ZM255.58-25.35L259.48-25.35 259.48-21.5Q262.13-25.75 267.32-25.75L267.32-25.75Q272.38-25.75 275.25-22.08 278.13-18.4 278.13-12.9L278.13-12.9Q278.13-7.05 275.1-3.33 272.07 0.4 267.23 0.4L267.23 0.4Q262.23 0.4 259.48-3.85L259.48-3.85 259.48 9.85 255.58 9.85 255.58-25.35ZM286.47-14.3L300.07-14.3 300.07-15.3Q300.07-18.45 298.37-20.33 296.67-22.2 293.67-22.2L293.67-22.2Q290.82-22.2 288.82-20.15 286.82-18.1 286.47-14.3L286.47-14.3ZM302.42-5L302.42-5 302.42-1.3Q299.47 0.25 295.22 0.25L295.22 0.25Q289.47 0.25 285.95-3.28 282.42-6.8 282.42-12.6L282.42-12.6Q282.42-18.65 285.57-22.15 288.72-25.65 293.67-25.65L293.67-25.65Q298.42-25.65 301.22-22.6 304.02-19.55 304.02-13.95L304.02-13.95Q304.02-12.35 303.77-11L303.77-11 286.47-11Q286.92-7.25 289.32-5.25 291.72-3.25 295.62-3.25L295.62-3.25Q299.87-3.25 302.42-5ZM310.02-25.35L313.92-25.35 313.92-20.9Q315.92-25.6 320.82-25.6L320.82-25.6Q321.72-25.6 322.22-25.5L322.22-25.5 322.22-21.6Q321.17-21.95 320.07-21.95L320.07-21.95Q317.42-21.95 315.67-19.5 313.92-17.05 313.92-13.85L313.92-13.85 313.92 0 309.97 0 310.02-25.35Z" opacity="1" transform="matrix(1,0,0,1,0,0)" fill="#e4bdd2" class="slogan-text-1" data-fill-palette-color="secondary" id="text-1"></path></svg></g></svg></g></svg></g></svg></g><g></g></svg></g></svg></g></svg></g></svg></g><defs></defs></svg><rect width="320" height="360" fill="none" stroke="none" visibility="hidden"></rect></g></svg></g></svg>